<svg xmlns="http://www.w3.org/2000/svg" width="480" height="270" viewBox="0 0 240 135" shape-rendering="crispEdges"><rect width="240" height="135" rx="4" fill="#000000"/><rect x="0" y="0" width="240" height="12" fill="#2a2a2a"/><text x="8" y="8" font-size="5.5" fill="#888888" text-anchor="start" font-family="Menlo,Consolas,monospace">prabbit.local</text><rect x="11" y="18" width="1" height="1" fill="#ffffff"/><rect x="12" y="18" width="1" height="1" fill="#ffffff"/><rect x="17" y="18" width="1" height="1" fill="#ffffff"/><rect x="18" y="18" width="1" height="1" fill="#ffffff"/><rect x="10" y="19" width="1" height="1" fill="#ffffff"/><rect x="11" y="19" width="1" height="1" fill="#ffffff"/><rect x="12" y="19" width="1" height="1" fill="#ffffff"/><rect x="13" y="19" width="1" height="1" fill="#ffffff"/><rect x="16" y="19" width="1" height="1" fill="#ffffff"/><rect x="17" y="19" width="1" height="1" fill="#ffffff"/><rect x="18" y="19" width="1" height="1" fill="#ffffff"/><rect x="19" y="19" width="1" height="1" fill="#ffffff"/><rect x="10" y="20" width="1" height="1" fill="#ffffff"/><rect x="11" y="20" width="1" height="1" fill="#ffffff"/><rect x="12" y="20" width="1" height="1" fill="#ffffff"/><rect x="13" y="20" width="1" height="1" fill="#ffffff"/><rect x="16" y="20" width="1" height="1" fill="#ffffff"/><rect x="17" y="20" width="1" height="1" fill="#ffffff"/><rect x="18" y="20" width="1" height="1" fill="#ffffff"/><rect x="19" y="20" width="1" height="1" fill="#ffffff"/><rect x="10" y="21" width="1" height="1" fill="#ffffff"/><rect x="11" y="21" width="1" height="1" fill="#ffffff"/><rect x="12" y="21" width="1" height="1" fill="#ffffff"/><rect x="13" y="21" width="1" height="1" fill="#ffffff"/><rect x="16" y="21" width="1" height="1" fill="#ffffff"/><rect x="17" y="21" width="1" height="1" fill="#ffffff"/><rect x="18" y="21" width="1" height="1" fill="#ffffff"/><rect x="19" y="21" width="1" height="1" fill="#ffffff"/><rect x="10" y="22" width="1" height="1" fill="#ffffff"/><rect x="11" y="22" width="1" height="1" fill="#ffffff"/><rect x="12" y="22" width="1" height="1" fill="#ffffff"/><rect x="13" y="22" width="1" height="1" fill="#ffffff"/><rect x="16" y="22" width="1" height="1" fill="#ffffff"/><rect x="17" y="22" width="1" height="1" fill="#ffffff"/><rect x="18" y="22" width="1" height="1" fill="#ffffff"/><rect x="19" y="22" width="1" height="1" fill="#ffffff"/><rect x="21" y="22" width="1" height="1" fill="#E63946"/><rect x="22" y="22" width="1" height="1" fill="#E63946"/><rect x="10" y="23" width="1" height="1" fill="#ffffff"/><rect x="11" y="23" width="1" height="1" fill="#ffffff"/><rect x="12" y="23" width="1" height="1" fill="#ffffff"/><rect x="13" y="23" width="1" height="1" fill="#ffffff"/><rect x="14" y="23" width="1" height="1" fill="#ffffff"/><rect x="15" y="23" width="1" height="1" fill="#ffffff"/><rect x="16" y="23" width="1" height="1" fill="#ffffff"/><rect x="17" y="23" width="1" height="1" fill="#ffffff"/><rect x="18" y="23" width="1" height="1" fill="#ffffff"/><rect x="19" y="23" width="1" height="1" fill="#ffffff"/><rect x="20" y="23" width="1" height="1" fill="#E63946"/><rect x="21" y="23" width="1" height="1" fill="#E63946"/><rect x="22" y="23" width="1" height="1" fill="#E63946"/><rect x="23" y="23" width="1" height="1" fill="#E63946"/><rect x="9" y="24" width="1" height="1" fill="#ffffff"/><rect x="10" y="24" width="1" height="1" fill="#ffffff"/><rect x="11" y="24" width="1" height="1" fill="#ffffff"/><rect x="12" y="24" width="1" height="1" fill="#ffffff"/><rect x="13" y="24" width="1" height="1" fill="#ffffff"/><rect x="14" y="24" width="1" height="1" fill="#ffffff"/><rect x="15" y="24" width="1" height="1" fill="#ffffff"/><rect x="16" y="24" width="1" height="1" fill="#ffffff"/><rect x="17" y="24" width="1" height="1" fill="#ffffff"/><rect x="18" y="24" width="1" height="1" fill="#ffffff"/><rect x="19" y="24" width="1" height="1" fill="#ffffff"/><rect x="20" y="24" width="1" height="1" fill="#E63946"/><rect x="21" y="24" width="1" height="1" fill="#E63946"/><rect x="22" y="24" width="1" height="1" fill="#E63946"/><rect x="23" y="24" width="1" height="1" fill="#E63946"/><rect x="9" y="25" width="1" height="1" fill="#ffffff"/><rect x="10" y="25" width="1" height="1" fill="#ffffff"/><rect x="13" y="25" width="1" height="1" fill="#ffffff"/><rect x="14" y="25" width="1" height="1" fill="#ffffff"/><rect x="15" y="25" width="1" height="1" fill="#ffffff"/><rect x="16" y="25" width="1" height="1" fill="#ffffff"/><rect x="17" y="25" width="1" height="1" fill="#ffffff"/><rect x="18" y="25" width="1" height="1" fill="#ffffff"/><rect x="21" y="25" width="1" height="1" fill="#E63946"/><rect x="22" y="25" width="1" height="1" fill="#E63946"/><rect x="9" y="26" width="1" height="1" fill="#ffffff"/><rect x="10" y="26" width="1" height="1" fill="#ffffff"/><rect x="13" y="26" width="1" height="1" fill="#ffffff"/><rect x="14" y="26" width="1" height="1" fill="#ffffff"/><rect x="15" y="26" width="1" height="1" fill="#ffffff"/><rect x="16" y="26" width="1" height="1" fill="#ffffff"/><rect x="17" y="26" width="1" height="1" fill="#ffffff"/><rect x="18" y="26" width="1" height="1" fill="#ffffff"/><rect x="21" y="26" width="1" height="1" fill="#6A994E"/><rect x="9" y="27" width="1" height="1" fill="#ffffff"/><rect x="10" y="27" width="1" height="1" fill="#ffffff"/><rect x="11" y="27" width="1" height="1" fill="#ffffff"/><rect x="12" y="27" width="1" height="1" fill="#ffffff"/><rect x="13" y="27" width="1" height="1" fill="#ffffff"/><rect x="14" y="27" width="1" height="1" fill="#ffffff"/><rect x="15" y="27" width="1" height="1" fill="#ffffff"/><rect x="16" y="27" width="1" height="1" fill="#ffffff"/><rect x="17" y="27" width="1" height="1" fill="#ffffff"/><rect x="18" y="27" width="1" height="1" fill="#ffffff"/><rect x="19" y="27" width="1" height="1" fill="#ffffff"/><rect x="20" y="27" width="1" height="1" fill="#ffffff"/><rect x="21" y="27" width="1" height="1" fill="#6A994E"/><rect x="9" y="28" width="1" height="1" fill="#ffffff"/><rect x="10" y="28" width="1" height="1" fill="#ffffff"/><rect x="11" y="28" width="1" height="1" fill="#ffffff"/><rect x="12" y="28" width="1" height="1" fill="#ffffff"/><rect x="13" y="28" width="1" height="1" fill="#ffffff"/><rect x="14" y="28" width="1" height="1" fill="#ffffff"/><rect x="15" y="28" width="1" height="1" fill="#E63946"/><rect x="16" y="28" width="1" height="1" fill="#E63946"/><rect x="17" y="28" width="1" height="1" fill="#ffffff"/><rect x="18" y="28" width="1" height="1" fill="#ffffff"/><rect x="19" y="28" width="1" height="1" fill="#ffffff"/><rect x="20" y="28" width="1" height="1" fill="#ffffff"/><rect x="21" y="28" width="1" height="1" fill="#ffffff"/><rect x="10" y="29" width="1" height="1" fill="#ffffff"/><rect x="11" y="29" width="1" height="1" fill="#ffffff"/><rect x="12" y="29" width="1" height="1" fill="#ffffff"/><rect x="13" y="29" width="1" height="1" fill="#ffffff"/><rect x="14" y="29" width="1" height="1" fill="#ffffff"/><rect x="15" y="29" width="1" height="1" fill="#E63946"/><rect x="16" y="29" width="1" height="1" fill="#E63946"/><rect x="17" y="29" width="1" height="1" fill="#ffffff"/><rect x="18" y="29" width="1" height="1" fill="#ffffff"/><rect x="19" y="29" width="1" height="1" fill="#ffffff"/><rect x="20" y="29" width="1" height="1" fill="#ffffff"/><rect x="10" y="30" width="1" height="1" fill="#ffffff"/><rect x="11" y="30" width="1" height="1" fill="#ffffff"/><rect x="12" y="30" width="1" height="1" fill="#ffffff"/><rect x="13" y="30" width="1" height="1" fill="#ffffff"/><rect x="14" y="30" width="1" height="1" fill="#ffffff"/><rect x="15" y="30" width="1" height="1" fill="#ffffff"/><rect x="16" y="30" width="1" height="1" fill="#ffffff"/><rect x="17" y="30" width="1" height="1" fill="#ffffff"/><rect x="18" y="30" width="1" height="1" fill="#ffffff"/><rect x="19" y="30" width="1" height="1" fill="#ffffff"/><rect x="20" y="30" width="1" height="1" fill="#ffffff"/><rect x="11" y="31" width="1" height="1" fill="#ffffff"/><rect x="12" y="31" width="1" height="1" fill="#ffffff"/><rect x="13" y="31" width="1" height="1" fill="#ffffff"/><rect x="14" y="31" width="1" height="1" fill="#ffffff"/><rect x="15" y="31" width="1" height="1" fill="#ffffff"/><rect x="16" y="31" width="1" height="1" fill="#ffffff"/><rect x="17" y="31" width="1" height="1" fill="#ffffff"/><rect x="18" y="31" width="1" height="1" fill="#ffffff"/><rect x="19" y="31" width="1" height="1" fill="#ffffff"/><rect x="12" y="32" width="1" height="1" fill="#ffffff"/><rect x="13" y="32" width="1" height="1" fill="#ffffff"/><rect x="14" y="32" width="1" height="1" fill="#ffffff"/><rect x="15" y="32" width="1" height="1" fill="#ffffff"/><rect x="16" y="32" width="1" height="1" fill="#ffffff"/><rect x="17" y="32" width="1" height="1" fill="#ffffff"/><rect x="18" y="32" width="1" height="1" fill="#ffffff"/><text x="30" y="27" font-size="9" fill="#ffffff" text-anchor="start" font-family="Menlo,Consolas,monospace" font-weight="bold">Miss Poppy Rabbit</text><circle cx="228" cy="24" r="3" fill="#6A994E"/><rect x="6" y="40" width="228" height="40" rx="4" fill="none" stroke="#2a2a2a"/><text x="12" y="50" font-size="6" fill="#E63946" text-anchor="start" font-family="Menlo,Consolas,monospace" font-weight="bold">POMODORO</text><text x="12" y="66" font-size="13" fill="#ffffff" text-anchor="start" font-family="Menlo,Consolas,monospace" font-weight="bold">18:42</text><text x="52" y="60" font-size="5.5" fill="#E63946" text-anchor="start" font-family="Menlo,Consolas,monospace">WORK</text><rect x="12" y="72" width="216" height="4" rx="2" fill="#2a2a2a"/><rect x="12" y="72" width="160" height="4" rx="2" fill="#E63946"/><rect x="6" y="86" width="228" height="44" rx="4" fill="none" stroke="#2a2a2a"/><text x="12" y="96" font-size="6" fill="#E63946" text-anchor="start" font-family="Menlo,Consolas,monospace" font-weight="bold">TASKS</text><rect x="12" y="102" width="6" height="6" fill="#6A994E" stroke="#6A994E" stroke-width="1"/><text x="24" y="108" font-size="5.5" fill="#888888" text-anchor="start" font-family="Menlo,Consolas,monospace">Ship v0.5 import endpoint</text><rect x="12" y="111" width="6" height="6" fill="none" stroke="#ffffff" stroke-width="1"/><text x="24" y="117" font-size="5.5" fill="#ffffff" text-anchor="start" font-family="Menlo,Consolas,monospace">Water the poppy</text><rect x="12" y="120" width="6" height="6" fill="none" stroke="#ffffff" stroke-width="1"/><text x="24" y="126" font-size="5.5" fill="#ffffff" text-anchor="start" font-family="Menlo,Consolas,monospace">Feed the rabbit</text></svg>